<svg width="24" height="24" viewBox="0 0 24 24" fill="none" xmlns="http://www.w3.org/2000/svg">
<path d="M5.00002 3.00008L5.00002 21.0001C5.00059 21.1823 5.05085 21.361 5.14539 21.5168C5.23994 21.6726 5.37518 21.7996 5.53657 21.8843C5.69796 21.9689 5.87938 22.008 6.0613 21.9972C6.24322 21.9864 6.41876 21.9262 6.56902 21.8231L19.569 12.8231C20.108 12.4501 20.108 11.5521 19.569 11.1781L6.56902 2.17808C6.41907 2.07391 6.24345 2.01282 6.06122 2.00145C5.879 1.99008 5.69714 2.02887 5.53541 2.1136C5.37368 2.19833 5.23826 2.32576 5.14387 2.48205C5.04948 2.63834 4.99973 2.8175 5.00002 3.00008Z" fill="#F8B30E"/>
</svg>
