<svg width="47" height="47" viewBox="0 0 47 47" fill="none" xmlns="http://www.w3.org/2000/svg">
<circle cx="23.5" cy="23.5" r="23" transform="rotate(180 23.5 23.5)" stroke="#F8B30E"/>
<path d="M25.5773 30.808L32 24.532L25.5773 18.2561C25.5193 18.182 25.4456 18.121 25.3612 18.077C25.2768 18.0331 25.1837 18.0072 25.0881 18.0013C24.9926 17.9954 24.8968 18.0095 24.8074 18.0427C24.7179 18.0758 24.6368 18.1273 24.5696 18.1936C24.5024 18.2599 24.4506 18.3394 24.4178 18.4268C24.3849 18.5143 24.3718 18.6075 24.3793 18.7003C24.3867 18.7931 24.4146 18.8832 24.461 18.9646C24.5074 19.0461 24.5713 19.1168 24.6483 19.1721L29.4536 23.8823L16.6683 23.8823C16.4911 23.8823 16.3211 23.9508 16.1958 24.0726C16.0704 24.1945 16 24.3597 16 24.532C16 24.7043 16.0704 24.8696 16.1958 24.9914C16.3211 25.1133 16.4911 25.1817 16.6683 25.1817L29.4536 25.1817L24.6483 29.8919C24.5233 30.0143 24.4535 30.1798 24.4541 30.3522C24.4547 30.5247 24.5258 30.6898 24.6516 30.8112C24.7775 30.9327 24.9478 31.0006 25.1252 31C25.3025 30.9994 25.4724 30.9303 25.5973 30.808L25.5773 30.808Z" fill="#F8B30E"/>
</svg>
