<svg width="15" height="20" viewBox="0 0 15 20" fill="none" xmlns="http://www.w3.org/2000/svg">
<path d="M1.86361e-06 0.999993L1.07681e-06 19C0.00057232 19.1822 0.0508357 19.3609 0.145379 19.5167C0.239923 19.6725 0.375166 19.7995 0.536553 19.8842C0.697941 19.9688 0.879361 20.0079 1.06128 19.9971C1.24321 19.9863 1.41874 19.9261 1.569 19.823L14.569 10.823C15.108 10.45 15.108 9.55199 14.569 9.17799L1.569 0.177993C1.41906 0.0738181 1.24343 0.0127275 1.06121 0.00135848C0.878981 -0.0100105 0.697124 0.0287772 0.535395 0.113507C0.373666 0.198237 0.238248 0.325669 0.143858 0.481957C0.049468 0.638246 -0.000286138 0.817413 1.86361e-06 0.999993Z" fill="#384158"/>
</svg>
