<svg width="47" height="47" viewBox="0 0 47 47" fill="none" xmlns="http://www.w3.org/2000/svg">
<circle cx="23.5" cy="23.5" r="23" transform="rotate(180 23.5 23.5)" fill="white" stroke="#37414F"/>
<path d="M24.5773 29.808L31 23.532L24.5773 17.2561C24.5193 17.182 24.4456 17.121 24.3612 17.077C24.2768 17.0331 24.1837 17.0072 24.0881 17.0013C23.9926 16.9954 23.8968 17.0095 23.8074 17.0427C23.7179 17.0758 23.6368 17.1273 23.5696 17.1936C23.5024 17.2599 23.4506 17.3394 23.4178 17.4268C23.3849 17.5143 23.3718 17.6075 23.3793 17.7003C23.3867 17.7931 23.4146 17.8832 23.461 17.9646C23.5074 18.0461 23.5713 18.1168 23.6483 18.1721L28.4536 22.8823L15.6683 22.8823C15.4911 22.8823 15.3211 22.9508 15.1958 23.0726C15.0704 23.1945 15 23.3597 15 23.532C15 23.7043 15.0704 23.8696 15.1958 23.9914C15.3211 24.1133 15.4911 24.1817 15.6683 24.1817L28.4536 24.1817L23.6483 28.8919C23.5233 29.0143 23.4535 29.1798 23.4541 29.3522C23.4547 29.5247 23.5258 29.6898 23.6516 29.8112C23.7775 29.9327 23.9478 30.0006 24.1252 30C24.3025 29.9994 24.4724 29.9303 24.5973 29.808L24.5773 29.808Z" fill="#37414F"/>
</svg>
