<svg width="66" height="66" viewBox="0 0 66 66" fill="none" xmlns="http://www.w3.org/2000/svg">
<path d="M66 49.2067V62.172C66.0004 63.1003 65.6487 63.9942 65.0158 64.6734C64.383 65.3525 63.516 65.7664 62.59 65.8313C60.9889 65.9438 59.6811 66 58.6667 66C26.2643 66 0 39.7357 0 7.33333C0 6.32133 0.0562222 5.01356 0.168667 3.41C0.233649 2.48396 0.647464 1.61704 1.32661 0.984166C2.00576 0.351292 2.89968 -0.000419588 3.828 9.40791e-07H16.7933C17.2481 -0.00045956 17.6869 0.16815 18.0243 0.473075C18.3618 0.778 18.5739 1.19747 18.6193 1.65C18.7024 2.49089 18.7807 3.16556 18.854 3.674C19.5826 8.7594 21.076 13.7054 23.2833 18.3443C23.6317 19.0777 23.4043 19.954 22.7443 20.4233L14.8317 26.0773C19.6706 37.3497 28.654 46.3331 39.9263 51.172L45.573 43.274C45.8029 42.9502 46.1396 42.7178 46.5239 42.6179C46.9082 42.518 47.3155 42.5568 47.674 42.7277C52.3124 44.9309 57.2571 46.4205 62.3407 47.146C62.8491 47.2193 63.5213 47.2976 64.3573 47.3807C64.8092 47.427 65.2278 47.6394 65.5319 47.9768C65.8361 48.3142 66.0005 48.7524 66 49.2067Z" fill="#555555"/>
</svg>
